<svg xmlns="http://www.w3.org/2000/svg" viewBox="0 7.99 53.73 53.73">
    <defs>
        <style>.cls-1{fill:#0083ad;}.cls-2{font-size:6px;fill:#231f20;font-family:Arial-BoldMT, Arial;font-weight:700;}.cls-3{letter-spacing:-0.02em;}.cls-4{fill:#cf63ce;}.cls-5{fill:#823c7b;}.cls-6{fill:#923a7f;}.cls-7{fill:#ab519f;}</style>
    </defs>
    <title>Fichier 5</title>
    <g id="Calque_2" data-name="Calque 2">
        <g id="Background">
            <rect class="cls-1" y="7.99" width="53.73" height="53.73"/>
            <g id="_Groupe_" data-name="&lt;Groupe&gt;">
                <path class="cls-4" d="M39.31,34.59A12.35,12.35,0,0,1,27.77,23,11.94,11.94,0,0,1,39.31,34.59Z"/>
                <path class="cls-5" d="M32.39,36.28l-.32.21a4.66,4.66,0,0,1,.47-.3Z"/>
                <path class="cls-6" d="M38.78,34.88A11.94,11.94,0,0,1,27.24,46.36,12.36,12.36,0,0,1,38.78,34.88Z"/>
                <path class="cls-6" d="M36.56,34.47A12.75,12.75,0,0,0,32.78,36l-.09.06a.46.46,0,0,0-.15.09,4.66,4.66,0,0,0-.47.3c-.15.11-.31.21-.46.33l-.37.29-.35.3c-.17.15-.34.3-.49.46a1.39,1.39,0,0,0-.21.21l-.26.27c-.13.15-.26.29-.37.44a3.79,3.79,0,0,0-.31.39c-.1.12-.19.25-.28.38a12.57,12.57,0,0,0-2.13,4.65,13.11,13.11,0,0,0-1.44-3.55l-.13-.23-.11-.18c-.11-.19-.24-.39-.36-.57s-.18-.25-.27-.38l-.16-.2-.15-.19,0,0a10.65,10.65,0,0,0-1.54-1.61L22.35,37c-.14-.11-.28-.22-.42-.31l-.43-.31-.41-.27a12.74,12.74,0,0,0-4-1.67,13.11,13.11,0,0,0,9.73-9.75A13.07,13.07,0,0,0,36.56,34.47Z"/>
                <path class="cls-4" d="M27,46.89A12,12,0,0,1,15.43,35.41h0A12.34,12.34,0,0,1,27,46.89Z"/>
                <path class="cls-7" d="M23.32,37.92a14.41,14.41,0,0,0-1.39-1.2c.14.09.28.2.42.31l.29.24c.2.18.38.37.57.55Z"/>
                <path class="cls-6" d="M26.43,22.49A12.36,12.36,0,0,1,14.9,34.06h0A11.93,11.93,0,0,1,26.43,22.49Z"/>
            </g>
            <g id="_Groupe_2" data-name="&lt;Groupe&gt;">
                <path class="cls-4" d="M52.4,46.9A11.94,11.94,0,0,1,40.55,35.39,12.35,12.35,0,0,1,52.4,46.9Z"/>
                <path class="cls-6" d="M51.88,22.48A12.37,12.37,0,0,1,40,34.08,11.94,11.94,0,0,1,51.88,22.48Z"/>
            </g>
            <g id="_Groupe_3" data-name="&lt;Groupe&gt;">
                <path class="cls-4" d="M14.2,34.61A12.37,12.37,0,0,1,2.32,23,11.94,11.94,0,0,1,14.2,34.61Z"/>
                <path class="cls-6" d="M13.67,34.86A11.94,11.94,0,0,1,1.79,46.37,12.36,12.36,0,0,1,13.67,34.86Z"/>
            </g>
            <g id="_Groupe_4" data-name="&lt;Groupe&gt;">
                <path class="cls-6" d="M38.79,9.43A11.94,11.94,0,0,1,27.23,21.25,12.35,12.35,0,0,1,38.79,9.43Z"/>
                <path class="cls-4" d="M27,21.78A12,12,0,0,1,15.43,10,12.35,12.35,0,0,1,27,21.78Z"/>
            </g>
            <g id="_Groupe_5" data-name="&lt;Groupe&gt;">
                <path class="cls-4" d="M52.42,21.79A12,12,0,0,1,40.54,9.94,12.36,12.36,0,0,1,52.42,21.79Z"/>
            </g>
            <g id="_Groupe_6" data-name="&lt;Groupe&gt;">
                <path class="cls-6" d="M13.68,9.41A12,12,0,0,1,1.78,21.26,12.37,12.37,0,0,1,13.68,9.41Z"/>
            </g>
            <g id="_Groupe_7" data-name="&lt;Groupe&gt;">
                <path class="cls-4" d="M39.32,60.05A12.39,12.39,0,0,1,27.75,48.13,12,12,0,0,1,39.32,60.05Z"/>
                <path class="cls-5" d="M38.79,59.54Z"/>
                <path class="cls-7" d="M15.21,59.54h0Z"/>
                <path class="cls-6" d="M26.44,47.6A12.35,12.35,0,0,1,14.9,59.51h0A12,12,0,0,1,26.44,47.6Z"/>
            </g>
            <g id="_Groupe_8" data-name="&lt;Groupe&gt;">
                <path class="cls-7" d="M40.32,59.54h0Z"/>
                <path class="cls-6" d="M51.89,47.6A12.36,12.36,0,0,1,40,59.53,11.94,11.94,0,0,1,51.89,47.6Z"/>
            </g>
            <g id="_Groupe_9" data-name="&lt;Groupe&gt;">
                <path class="cls-4" d="M14.21,60.06A12.37,12.37,0,0,1,2.3,48.13,11.94,11.94,0,0,1,14.21,60.06Z"/>
                <path class="cls-5" d="M13.68,59.54Z"/>
            </g>
        </g>
    </g>
</svg>