<svg xmlns="http://www.w3.org/2000/svg" viewBox="0 0 53.74 53.74">
    <defs>
        <style>.cls-1{fill:#f5333f;}.cls-2{fill:#f2dab2;}.cls-3{fill:#feae76;}.cls-4{fill:#f68e66;}</style>
    </defs>
    <title>Fichier 3</title>
    <g id="Calque_2" data-name="Calque 2">
        <g id="Background">
            <rect class="cls-1" width="53.74" height="53.74"/>
            <polygon class="cls-2" points="44.17 44.66 51.54 52.03 36.23 52.03 46.01 49.49 44.17 44.66"/>
            <polygon class="cls-3" points="52.12 36.13 52.12 51.44 44.76 44.08 49.59 45.91 52.12 36.13"/>
            <polygon class="cls-2" points="39.64 39.06 28.28 27.7 36.66 31.18 39.29 38.12 39.58 38.89 39.64 39.06"/>
            <polygon class="cls-4" points="39.66 39.08 39.64 39.06 39.58 38.89 39.29 38.12 39.44 38.53 39.59 38.91 39.66 39.08"/>
            <polygon class="cls-3" points="28.52 27.13 37.01 30.65 50.57 27.13 28.52 27.13"/>
            <polygon class="cls-2" points="27.27 28.38 27.27 50.43 30.78 36.87 27.27 28.38"/>
            <polygon class="cls-3" points="39.22 39.52 38.92 39.41 37.79 38.98 37.72 38.95 31.31 36.52 27.84 28.14 38.16 38.46 39.22 39.52"/>
            <polygon class="cls-3" points="43.82 43.72 44.17 44.66 40.27 40.76 38.93 39.42 39.91 39.8 39.64 39.06 39.58 38.89 39.59 38.91 40.84 40.15 44.76 44.08 43.82 43.72"/>
            <polyline class="cls-4" points="40.27 40.76 39.91 39.8 39.64 39.06"/>
            <polyline class="cls-4" points="40.84 40.15 39.91 39.8 38.93 39.42 37.79 38.98"/>
            <polygon class="cls-3" points="44.17 8.95 51.54 1.58 36.23 1.58 46.01 4.12 44.17 8.95"/>
            <polygon class="cls-2" points="52.12 17.48 52.12 2.17 44.76 9.53 49.59 7.7 52.12 17.48"/>
            <polygon class="cls-3" points="39.64 14.55 28.28 25.91 36.66 22.43 39.29 15.49 39.58 14.72 39.64 14.55"/>
            <polygon class="cls-4" points="39.66 14.53 39.64 14.55 39.58 14.72 39.29 15.49 39.44 15.08 39.59 14.7 39.66 14.53"/>
            <polygon class="cls-2" points="28.52 26.48 37.01 22.96 50.57 26.48 28.52 26.48"/>
            <polygon class="cls-3" points="27.27 25.23 27.27 3.18 30.78 16.74 27.27 25.23"/>
            <polygon class="cls-2" points="39.22 14.09 38.92 14.2 37.79 14.63 37.72 14.66 31.31 17.09 27.84 25.46 38.16 15.15 39.22 14.09"/>
            <polygon class="cls-3" points="43.82 9.89 44.17 8.95 40.27 12.85 38.93 14.19 39.91 13.81 39.64 14.55 39.58 14.72 39.59 14.7 40.84 13.46 44.76 9.53 43.82 9.89"/>
            <polyline class="cls-4" points="39.64 14.55 39.91 13.81 40.27 12.85"/>
            <polyline class="cls-4" points="37.79 14.63 38.93 14.19 39.91 13.81 40.84 13.46"/>
            <polygon class="cls-3" points="9.8 44.66 2.43 52.03 17.74 52.03 7.97 49.49 9.8 44.66"/>
            <polygon class="cls-2" points="1.85 36.13 1.85 51.44 9.21 44.08 4.38 45.91 1.85 36.13"/>
            <polygon class="cls-3" points="14.33 39.06 25.69 27.7 17.31 31.18 14.69 38.12 14.4 38.89 14.33 39.06"/>
            <polygon class="cls-4" points="14.32 39.08 14.33 39.06 14.4 38.89 14.69 38.12 14.53 38.53 14.38 38.91 14.32 39.08"/>
            <polygon class="cls-2" points="25.45 27.13 16.97 30.65 3.4 27.13 25.45 27.13"/>
            <polygon class="cls-3" points="26.7 28.38 26.7 50.43 23.19 36.87 26.7 28.38"/>
            <polygon class="cls-2" points="14.76 39.52 15.05 39.41 16.19 38.98 16.25 38.95 22.66 36.52 26.13 28.14 15.81 38.46 14.76 39.52"/>
            <polygon class="cls-3" points="10.15 43.72 9.8 44.66 13.7 40.76 15.04 39.42 14.06 39.8 14.33 39.06 14.4 38.89 14.38 38.91 13.13 40.15 9.21 44.08 10.15 43.72"/>
            <polyline class="cls-4" points="14.33 39.06 14.06 39.8 13.7 40.76"/>
            <polyline class="cls-4" points="16.19 38.98 15.04 39.42 14.06 39.8 13.13 40.15"/>
            <polygon class="cls-2" points="9.8 8.95 2.43 1.58 17.74 1.58 7.97 4.12 9.8 8.95"/>
            <polygon class="cls-3" points="1.85 17.48 1.85 2.17 9.21 9.53 4.38 7.7 1.85 17.48"/>
            <polygon class="cls-2" points="14.33 14.55 25.69 25.91 17.31 22.43 14.69 15.49 14.4 14.72 14.33 14.55"/>
            <polygon class="cls-4" points="14.32 14.53 14.33 14.55 14.4 14.72 14.69 15.49 14.53 15.08 14.38 14.7 14.32 14.53"/>
            <polygon class="cls-3" points="25.45 26.48 16.97 22.96 3.4 26.48 25.45 26.48"/>
            <polygon class="cls-2" points="26.7 25.23 26.7 3.18 23.19 16.74 26.7 25.23"/>
            <polygon class="cls-3" points="14.76 14.09 15.05 14.2 16.19 14.63 16.25 14.66 22.66 17.09 26.13 25.46 15.81 15.15 14.76 14.09"/>
            <polygon class="cls-3" points="10.15 9.89 9.8 8.95 13.7 12.85 15.04 14.19 14.06 13.81 14.33 14.55 14.4 14.72 14.38 14.7 13.13 13.46 9.21 9.53 10.15 9.89"/>
            <polyline class="cls-4" points="13.7 12.85 14.06 13.81 14.33 14.55"/>
            <polyline class="cls-4" points="13.13 13.46 14.06 13.81 15.04 14.19 16.19 14.63"/>
        </g>
    </g>
</svg>